<svg xmlns="http://www.w3.org/2000/svg" viewBox="0 0 128 128">
  <path d="M30 8 C17.8 8 8 17.8 8 30 L8 78 C8 90.2 17.8 100 30 100 L32 100 L32 120 L56 100 L98 100 C110.2 100 120 90.2 120 78 L120 30 C120 17.8 110.2 8 98 8 Z" fill="#10A37F"/>
  <rect x="54" y="32" width="40" height="12" fill="#FFFFFF"/>
  <rect x="54" y="32" width="8" height="38" fill="#FFFFFF"/>
  <rect x="86" y="32" width="8" height="38" fill="#FFFFFF"/>
  <ellipse cx="46" cy="68" rx="13" ry="10" transform="rotate(-15 46 68)" fill="#FFFFFF"/>
  <ellipse cx="78" cy="68" rx="13" ry="10" transform="rotate(-15 78 68)" fill="#FFFFFF"/>
</svg>
