<svg xmlns="http://www.w3.org/2000/svg" viewBox="0 0 128 128">
  <path d="M30 8 C17.8 8 8 17.8 8 30 L8 78 C8 90.2 17.8 100 30 100 L32 100 L32 120 L56 100 L98 100 C110.2 100 120 90.2 120 78 L120 30 C120 17.8 110.2 8 98 8 Z" fill="#10A37F"/>
  <path d="M90,26 L58,26 C55.8,26 54,27.8 54,30 L54,64.8 C52.5,63.6 50.4,62.8 48,62.8 C42.5,62.8 38,67.3 38,72.8 C38,78.3 42.5,82.8 48,82.8 C53.5,82.8 58,78.3 58,72.8 L58,38 L86,38 L86,64.8 C84.5,63.6 82.4,62.8 80,62.8 C74.5,62.8 70,67.3 70,72.8 C70,78.3 74.5,82.8 80,82.8 C85.5,82.8 90,78.3 90,72.8 L90,30 C90,27.8 88.2,26 86,26 L90,26 Z" fill="#FFFFFF"/>
</svg>
