<svg xmlns="http://www.w3.org/2000/svg" viewBox="0 0 128 128">
  <path d="M30 8 C17.8 8 8 17.8 8 30 L8 78 C8 90.2 17.8 100 30 100 L32 100 L32 120 L56 100 L98 100 C110.2 100 120 90.2 120 78 L120 30 C120 17.8 110.2 8 98 8 Z" fill="#10A37F"/>
  <path d="M86,34 L54,34 C51.8,34 50,35.8 50,38 L50,64.8 C48.5,63.6 46.4,62.8 44,62.8 C38.5,62.8 34,67.3 34,72.8 C34,78.3 38.5,82.8 44,82.8 C49.5,82.8 54,78.3 54,72.8 L54,46 L82,46 L82,64.8 C80.5,63.6 78.4,62.8 76,62.8 C70.5,62.8 66,67.3 66,72.8 C66,78.3 70.5,82.8 76,82.8 C81.5,82.8 86,78.3 86,72.8 L86,38 C86,35.8 84.2,34 82,34 L86,34 Z" fill="#FFFFFF"/>
</svg>
