<svg xmlns="http://www.w3.org/2000/svg" viewBox="0 0 128 128">
  <path d="M30 8 C17.8 8 8 17.8 8 30 L8 78 C8 90.2 17.8 100 30 100 L32 100 L32 120 L56 100 L98 100 C110.2 100 120 90.2 120 78 L120 30 C120 17.8 110.2 8 98 8 Z" fill="#10A37F"/>
  <path d="M88,30 L56,30 C53.8,30 52,31.8 52,34 L52,60.8 C50.5,59.6 48.4,58.8 46,58.8 C40.5,58.8 36,63.3 36,68.8 C36,74.3 40.5,78.8 46,78.8 C51.5,78.8 56,74.3 56,68.8 L56,42 L84,42 L84,60.8 C82.5,59.6 80.4,58.8 78,58.8 C72.5,58.8 68,63.3 68,68.8 C68,74.3 72.5,78.8 78,78.8 C83.5,78.8 88,74.3 88,68.8 L88,34 C88,31.8 86.2,30 84,30 L88,30 Z" fill="#FFFFFF"/>
</svg>
